#!OML:ASF H:\LiuWeirdWalks\Patient Classification 1\Patient 1\Session 1\male.ASF
:FULLY-SPECIFIED
:DEGREES
670
root 0.623625 18.0723 -1.17207 7.6016 7.22173 0.0148115
lowerback 1.73617 -0.257946 -4.47119
upperback -2.59438 -0.429231 2.20524
thorax -3.60931 -0.0577388 4.82111
lowerneck -13.3951 -0.639347 4.48568
upperneck 22.2288 -0.613322 -5.532
head 9.14172 -0.505803 -2.72676
rclavicle -1.05356e-014 2.78299e-015
rhumerus -36.7599 -8.77194 -76.6528
rradius 36.8445
rwrist -10.3824
rhand -16.6949 -3.49547
rfingers 7.12502
rthumb 9.52969 -33.26
lclavicle -1.05356e-014 2.78299e-015
lhumerus -42.4537 -3.88382 88.0843
lradius 40.9747
lwrist 14.8107
lhand -14.5679 -0.235083
lfingers 7.12502
lthumb 11.5814 29.4249
rfemur -26.2641 0.284708 23.859
rtibia 36.5726
rfoot -7.8988 -23.4314
rtoes 1.92356
lfemur 18.0526 -7.9608 -15.8068
ltibia 11.424
lfoot 22.3186 -2.39858
ltoes -28.5077
671
root 0.607748 18.074 -1.09767 7.64301 7.0194 -0.0644338
lowerback 1.70393 -0.315581 -4.41977
upperback -2.61018 -0.502498 2.23424
thorax -3.59888 -0.0953 4.82541
lowerneck -13.3145 -0.596959 4.54116
upperneck 22.1668 -0.560211 -5.55964
head 9.10782 -0.479038 -2.73729
rclavicle 2.85753e-015 1.19271e-015
rhumerus -36.8182 -8.67181 -76.7027
rradius 36.8604
rwrist -10.4025
rhand -16.7414 -3.4895
rfingers 7.12502
rthumb 9.4849 -33.256
lclavicle 2.85753e-015 1.19271e-015
lhumerus -42.2019 -3.98615 88.0919
lradius 41.2585
lwrist 14.915
lhand -14.5967 -0.283305
lfingers 7.12502
lthumb 11.5537 29.3782
rfemur -25.9841 0.503803 24.0213
rtibia 36.4413
rfoot -8.06915 -23.4695
rtoes 1.94639
lfemur 17.6779 -7.99328 -15.7229
ltibia 12.3074
lfoot 22.6119 -2.47021
ltoes -28.0069
672
root 0.591313 18.0756 -1.02435 7.6779 6.82101 -0.159136
lowerback 1.67169 -0.370587 -4.36351
upperback -2.62251 -0.571824 2.27173
thorax -3.58532 -0.131065 4.83555
lowerneck -13.2267 -0.558125 4.59289
upperneck 22.0974 -0.510426 -5.58989
head 9.06992 -0.454333 -2.74823
rclavicle 1.33434e-014 4.37326e-015
rhumerus -36.8795 -8.58066 -76.7402
rradius 36.8719
rwrist -10.4226
rhand -16.7786 -3.51964
rfingers 7.12502
rthumb 9.44897 -33.2878
lclavicle 1.33434e-014 4.37326e-015
lhumerus -41.9358 -4.0756 88.094
lradius 41.5302
lwrist 14.9969
lhand -14.6277 -0.356891
lfingers 7.12502
lthumb 11.5238 29.3063
rfemur -25.6944 0.73544 24.2005
rtibia 36.2976
rfoot -8.23253 -23.5167
rtoes 1.96524
lfemur 17.2822 -7.98169 -15.5937
ltibia 13.2388
lfoot 22.9331 -2.60844
ltoes -27.4688
673
root 0.574333 18.0771 -0.951816 7.70151 6.63805 -0.258279
lowerback 1.6357 -0.42764 -4.31568
upperback -2.62746 -0.643862 2.31512
thorax -3.56159 -0.168314 4.85657
lowerneck -13.1542 -0.518613 4.65702
upperneck 22.0422 -0.459516 -5.63356
head 9.0398 -0.429599 -2.76634
rclavicle -4.99446e-015 -1.23246e-014
rhumerus -36.941 -8.49653 -76.765
rradius 36.8749
rwrist -10.4519
rhand -16.7966 -3.55667
rfingers 7.12502
rthumb 9.43162 -33.3256
lclavicle -4.99446e-015 -1.23246e-014
lhumerus -41.6541 -4.16027 88.0902
lradius 41.7931
lwrist 15.07
lhand -14.6551 -0.380041
lfingers 7.12502
lthumb 11.4973 29.2847
rfemur -25.3867 0.96099 24.3871
rtibia 36.1423
rfoot -8.39126 -23.5672
rtoes 1.97741
lfemur 16.858 -7.94324 -15.434
ltibia 14.246
lfoot 23.215 -2.80493
ltoes -27.0817
674
root 0.55705 18.0785 -0.880769 7.71392 6.46134 -0.368787
lowerback 1.59839 -0.485187 -4.26143
upperback -2.61967 -0.71621 2.36148
thorax -3.52384 -0.206523 4.87676
lowerneck -13.1287 -0.478156 4.72862
upperneck 22.032 -0.408294 -5.68238
head 9.03399 -0.405017 -2.7891
rclavicle -1.44367e-014 -1.43125e-014
rhumerus -36.9834 -8.42733 -76.7827
rradius 36.8575
rwrist -10.4671
rhand -16.7983 -3.59445
rfingers 7.12502
rthumb 9.42999 -33.3635
lclavicle -1.44367e-014 -1.43125e-014
lhumerus -41.3491 -4.23504 88.0713
lradius 42.0549
lwrist 15.1272
lhand -14.6858 -0.429842
lfingers 7.12502
lthumb 11.4678 29.2365
rfemur -25.0663 1.1831 24.587
rtibia 35.9756
rfoot -8.54287 -23.6092
rtoes 1.99172
lfemur 16.3933 -7.85644 -15.234
ltibia 15.3458
lfoot 23.4828 -3.06017
ltoes -26.7064
